<svg width="1200" height="900" viewBox="0 0 1200 900" fill="none" xmlns="http://www.w3.org/2000/svg">
<rect width="1200" height="900" fill="#262626"/>
<path d="M40.232 456L40.232 439.248H46.904C48.408 439.248 49.56 439.68 50.36 440.544C51.176 441.392 51.584 442.56 51.584 444.048C51.584 445.536 51.176 446.712 50.36 447.576C49.56 448.424 48.408 448.848 46.904 448.848H42.248V456H40.232ZM42.248 447.072H46.904C47.704 447.072 48.32 446.864 48.752 446.448C49.2 446.032 49.424 445.44 49.424 444.672V443.424C49.424 442.656 49.2 442.064 48.752 441.648C48.32 441.232 47.704 441.024 46.904 441.024H42.248V447.072ZM54.3603 456V443.616H56.2803V445.896H56.4003C56.6243 445.304 57.0243 444.776 57.6003 444.312C58.1763 443.848 58.9683 443.616 59.9763 443.616H60.7203V445.536H59.5923C58.5523 445.536 57.7363 445.736 57.1443 446.136C56.5683 446.52 56.2803 447.008 56.2803 447.6V456H54.3603ZM67.7116 456.288C66.8636 456.288 66.0956 456.136 65.4076 455.832C64.7356 455.528 64.1516 455.096 63.6556 454.536C63.1756 453.96 62.7996 453.28 62.5276 452.496C62.2716 451.696 62.1436 450.8 62.1436 449.808C62.1436 448.832 62.2716 447.944 62.5276 447.144C62.7996 446.344 63.1756 445.664 63.6556 445.104C64.1516 444.528 64.7356 444.088 65.4076 443.784C66.0956 443.48 66.8636 443.328 67.7116 443.328C68.5436 443.328 69.2876 443.48 69.9436 443.784C70.5996 444.088 71.1596 444.512 71.6236 445.056C72.0876 445.584 72.4396 446.216 72.6796 446.952C72.9356 447.688 73.0636 448.496 73.0636 449.376V450.288H64.1596V450.864C64.1596 451.392 64.2396 451.888 64.3996 452.352C64.5756 452.8 64.8156 453.192 65.1196 453.528C65.4396 453.864 65.8236 454.128 66.2716 454.32C66.7356 454.512 67.2556 454.608 67.8316 454.608C68.6156 454.608 69.2956 454.424 69.8716 454.056C70.4636 453.688 70.9196 453.16 71.2396 452.472L72.6076 453.456C72.2076 454.304 71.5836 454.992 70.7356 455.52C69.8876 456.032 68.8796 456.288 67.7116 456.288ZM67.7116 444.936C67.1836 444.936 66.7036 445.032 66.2716 445.224C65.8396 445.4 65.4636 445.656 65.1436 445.992C64.8396 446.328 64.5996 446.728 64.4236 447.192C64.2476 447.64 64.1596 448.136 64.1596 448.68V448.848H70.9996V448.584C70.9996 447.48 70.6956 446.6 70.0876 445.944C69.4956 445.272 68.7036 444.936 67.7116 444.936ZM79.9475 456.288C78.7955 456.288 77.8275 456.072 77.0435 455.64C76.2755 455.192 75.6115 454.6 75.0515 453.864L76.4195 452.76C76.8995 453.368 77.4355 453.84 78.0275 454.176C78.6195 454.496 79.3075 454.656 80.0915 454.656C80.9075 454.656 81.5395 454.48 81.9875 454.128C82.4515 453.776 82.6835 453.28 82.6835 452.64C82.6835 452.16 82.5235 451.752 82.2035 451.416C81.8995 451.064 81.3395 450.824 80.5235 450.696L79.5395 450.552C78.9635 450.472 78.4355 450.352 77.9555 450.192C77.4755 450.016 77.0515 449.792 76.6835 449.52C76.3315 449.232 76.0515 448.88 75.8435 448.464C75.6515 448.048 75.5555 447.552 75.5555 446.976C75.5555 446.368 75.6675 445.84 75.8915 445.392C76.1155 444.928 76.4195 444.544 76.8035 444.24C77.2035 443.936 77.6755 443.712 78.2195 443.568C78.7635 443.408 79.3475 443.328 79.9715 443.328C80.9795 443.328 81.8195 443.504 82.4915 443.856C83.1795 444.208 83.7795 444.696 84.2915 445.32L83.0195 446.472C82.7475 446.088 82.3475 445.744 81.8195 445.44C81.2915 445.12 80.6275 444.96 79.8275 444.96C79.0275 444.96 78.4195 445.136 78.0035 445.488C77.6035 445.824 77.4035 446.288 77.4035 446.88C77.4035 447.488 77.6035 447.928 78.0035 448.2C78.4195 448.472 79.0115 448.672 79.7795 448.8L80.7395 448.944C82.1155 449.152 83.0915 449.552 83.6675 450.144C84.2435 450.72 84.5315 451.48 84.5315 452.424C84.5315 453.624 84.1235 454.568 83.3075 455.256C82.4915 455.944 81.3715 456.288 79.9475 456.288ZM92.5788 456.288C91.7308 456.288 90.9628 456.136 90.2748 455.832C89.6028 455.528 89.0188 455.096 88.5228 454.536C88.0428 453.96 87.6668 453.28 87.3948 452.496C87.1388 451.696 87.0108 450.8 87.0108 449.808C87.0108 448.832 87.1388 447.944 87.3948 447.144C87.6668 446.344 88.0428 445.664 88.5228 445.104C89.0188 444.528 89.6028 444.088 90.2748 443.784C90.9628 443.48 91.7308 443.328 92.5788 443.328C93.4108 443.328 94.1548 443.48 94.8108 443.784C95.4668 444.088 96.0268 444.512 96.4908 445.056C96.9548 445.584 97.3068 446.216 97.5468 446.952C97.8028 447.688 97.9308 448.496 97.9308 449.376V450.288H89.0268V450.864C89.0268 451.392 89.1068 451.888 89.2668 452.352C89.4428 452.8 89.6828 453.192 89.9868 453.528C90.3068 453.864 90.6908 454.128 91.1388 454.32C91.6028 454.512 92.1228 454.608 92.6988 454.608C93.4828 454.608 94.1628 454.424 94.7388 454.056C95.3308 453.688 95.7868 453.16 96.1068 452.472L97.4748 453.456C97.0748 454.304 96.4508 454.992 95.6028 455.52C94.7548 456.032 93.7468 456.288 92.5788 456.288ZM92.5788 444.936C92.0508 444.936 91.5708 445.032 91.1388 445.224C90.7068 445.4 90.3308 445.656 90.0108 445.992C89.7068 446.328 89.4668 446.728 89.2908 447.192C89.1148 447.64 89.0268 448.136 89.0268 448.68V448.848H95.8668V448.584C95.8668 447.48 95.5628 446.6 94.9548 445.944C94.3628 445.272 93.5708 444.936 92.5788 444.936ZM101.095 456V443.616H103.015V445.632H103.111C103.415 444.928 103.839 444.368 104.383 443.952C104.943 443.536 105.687 443.328 106.615 443.328C107.895 443.328 108.903 443.744 109.639 444.576C110.391 445.392 110.767 446.552 110.767 448.056V456H108.847V448.392C108.847 446.168 107.911 445.056 106.039 445.056C105.655 445.056 105.279 445.104 104.911 445.2C104.559 445.296 104.239 445.44 103.951 445.632C103.663 445.824 103.431 446.072 103.255 446.376C103.095 446.664 103.015 447.008 103.015 447.408V456H101.095ZM117.471 456C116.799 456 116.287 455.816 115.935 455.448C115.599 455.064 115.431 454.568 115.431 453.96V445.296H113.391V443.616H114.543C114.959 443.616 115.239 443.536 115.383 443.376C115.543 443.2 115.623 442.904 115.623 442.488V440.184H117.351V443.616H120.063V445.296H117.351V454.32H119.871V456H117.471Z" fill="#F4F4F4"/>
<path d="M1043.23 76V59.248H1049.9C1051.41 59.248 1052.56 59.68 1053.36 60.544C1054.18 61.392 1054.58 62.56 1054.58 64.048C1054.58 65.536 1054.18 66.712 1053.36 67.576C1052.56 68.424 1051.41 68.848 1049.9 68.848H1045.25V76H1043.23ZM1045.25 67.072H1049.9C1050.7 67.072 1051.32 66.864 1051.75 66.448C1052.2 66.032 1052.42 65.44 1052.42 64.672V63.424C1052.42 62.656 1052.2 62.064 1051.75 61.648C1051.32 61.232 1050.7 61.024 1049.9 61.024H1045.25V67.072ZM1061.81 76.288C1060.97 76.288 1060.21 76.136 1059.53 75.832C1058.84 75.528 1058.25 75.096 1057.75 74.536C1057.27 73.96 1056.89 73.28 1056.62 72.496C1056.35 71.696 1056.21 70.8 1056.21 69.808C1056.21 68.832 1056.35 67.944 1056.62 67.144C1056.89 66.344 1057.27 65.664 1057.75 65.104C1058.25 64.528 1058.84 64.088 1059.53 63.784C1060.21 63.48 1060.97 63.328 1061.81 63.328C1062.64 63.328 1063.39 63.48 1064.06 63.784C1064.75 64.088 1065.34 64.528 1065.84 65.104C1066.33 65.664 1066.72 66.344 1066.99 67.144C1067.26 67.944 1067.4 68.832 1067.4 69.808C1067.4 70.8 1067.26 71.696 1066.99 72.496C1066.72 73.28 1066.33 73.96 1065.84 74.536C1065.34 75.096 1064.75 75.528 1064.06 75.832C1063.39 76.136 1062.64 76.288 1061.81 76.288ZM1061.81 74.584C1062.85 74.584 1063.69 74.264 1064.35 73.624C1065.01 72.984 1065.33 72.008 1065.33 70.696V68.92C1065.33 67.608 1065.01 66.632 1064.35 65.992C1063.69 65.352 1062.85 65.032 1061.81 65.032C1060.77 65.032 1059.92 65.352 1059.26 65.992C1058.61 66.632 1058.28 67.608 1058.28 68.92V70.696C1058.28 72.008 1058.61 72.984 1059.26 73.624C1059.92 74.264 1060.77 74.584 1061.81 74.584ZM1074.28 76.288C1073.12 76.288 1072.16 76.072 1071.37 75.64C1070.6 75.192 1069.94 74.6 1069.38 73.864L1070.75 72.76C1071.23 73.368 1071.76 73.84 1072.36 74.176C1072.95 74.496 1073.64 74.656 1074.42 74.656C1075.24 74.656 1075.87 74.48 1076.32 74.128C1076.78 73.776 1077.01 73.28 1077.01 72.64C1077.01 72.16 1076.85 71.752 1076.53 71.416C1076.23 71.064 1075.67 70.824 1074.85 70.696L1073.87 70.552C1073.29 70.472 1072.76 70.352 1072.28 70.192C1071.8 70.016 1071.38 69.792 1071.01 69.52C1070.66 69.232 1070.38 68.88 1070.17 68.464C1069.98 68.048 1069.88 67.552 1069.88 66.976C1069.88 66.368 1070 65.84 1070.22 65.392C1070.44 64.928 1070.75 64.544 1071.13 64.24C1071.53 63.936 1072 63.712 1072.55 63.568C1073.09 63.408 1073.68 63.328 1074.3 63.328C1075.31 63.328 1076.15 63.504 1076.82 63.856C1077.51 64.208 1078.11 64.696 1078.62 65.32L1077.35 66.472C1077.08 66.088 1076.68 65.744 1076.15 65.44C1075.62 65.12 1074.96 64.96 1074.16 64.96C1073.36 64.96 1072.75 65.136 1072.33 65.488C1071.93 65.824 1071.73 66.288 1071.73 66.88C1071.73 67.488 1071.93 67.928 1072.33 68.2C1072.75 68.472 1073.34 68.672 1074.11 68.8L1075.07 68.944C1076.44 69.152 1077.42 69.552 1078 70.144C1078.57 70.72 1078.86 71.48 1078.86 72.424C1078.86 73.624 1078.45 74.568 1077.64 75.256C1076.82 75.944 1075.7 76.288 1074.28 76.288ZM1085.83 76.288C1084.68 76.288 1083.71 76.072 1082.93 75.64C1082.16 75.192 1081.49 74.6 1080.93 73.864L1082.3 72.76C1082.78 73.368 1083.32 73.84 1083.91 74.176C1084.5 74.496 1085.19 74.656 1085.97 74.656C1086.79 74.656 1087.42 74.48 1087.87 74.128C1088.33 73.776 1088.57 73.28 1088.57 72.64C1088.57 72.16 1088.41 71.752 1088.09 71.416C1087.78 71.064 1087.22 70.824 1086.41 70.696L1085.42 70.552C1084.85 70.472 1084.32 70.352 1083.84 70.192C1083.36 70.016 1082.93 69.792 1082.57 69.52C1082.21 69.232 1081.93 68.88 1081.73 68.464C1081.53 68.048 1081.44 67.552 1081.44 66.976C1081.44 66.368 1081.55 65.84 1081.77 65.392C1082 64.928 1082.3 64.544 1082.69 64.24C1083.09 63.936 1083.56 63.712 1084.1 63.568C1084.65 63.408 1085.23 63.328 1085.85 63.328C1086.86 63.328 1087.7 63.504 1088.37 63.856C1089.06 64.208 1089.66 64.696 1090.17 65.32L1088.9 66.472C1088.63 66.088 1088.23 65.744 1087.7 65.44C1087.17 65.12 1086.51 64.96 1085.71 64.96C1084.91 64.96 1084.3 65.136 1083.89 65.488C1083.49 65.824 1083.29 66.288 1083.29 66.88C1083.29 67.488 1083.49 67.928 1083.89 68.2C1084.3 68.472 1084.89 68.672 1085.66 68.8L1086.62 68.944C1088 69.152 1088.97 69.552 1089.55 70.144C1090.13 70.72 1090.41 71.48 1090.41 72.424C1090.41 73.624 1090.01 74.568 1089.19 75.256C1088.37 75.944 1087.25 76.288 1085.83 76.288ZM1094.77 60.712C1094.35 60.712 1094.05 60.616 1093.85 60.424C1093.68 60.216 1093.59 59.952 1093.59 59.632V59.32C1093.59 59 1093.68 58.744 1093.85 58.552C1094.05 58.344 1094.35 58.24 1094.77 58.24C1095.18 58.24 1095.48 58.344 1095.65 58.552C1095.85 58.744 1095.94 59 1095.94 59.32V59.632C1095.94 59.952 1095.85 60.216 1095.65 60.424C1095.48 60.616 1095.18 60.712 1094.77 60.712ZM1093.81 63.616H1095.73V76H1093.81V63.616ZM1099.81 58.24H1101.73V65.632H1101.82C1102.14 64.848 1102.61 64.272 1103.21 63.904C1103.84 63.52 1104.58 63.328 1105.45 63.328C1106.21 63.328 1106.91 63.48 1107.53 63.784C1108.16 64.088 1108.69 64.52 1109.12 65.08C1109.57 65.64 1109.9 66.32 1110.13 67.12C1110.37 67.92 1110.49 68.816 1110.49 69.808C1110.49 70.8 1110.37 71.696 1110.13 72.496C1109.9 73.296 1109.57 73.976 1109.12 74.536C1108.69 75.096 1108.16 75.528 1107.53 75.832C1106.91 76.136 1106.21 76.288 1105.45 76.288C1103.77 76.288 1102.56 75.52 1101.82 73.984H1101.73V76H1099.81V58.24ZM1104.92 74.56C1106.01 74.56 1106.86 74.224 1107.49 73.552C1108.11 72.864 1108.42 71.968 1108.42 70.864V68.752C1108.42 67.648 1108.11 66.76 1107.49 66.088C1106.86 65.4 1106.01 65.056 1104.92 65.056C1104.49 65.056 1104.07 65.12 1103.67 65.248C1103.29 65.36 1102.95 65.52 1102.66 65.728C1102.37 65.936 1102.14 66.192 1101.97 66.496C1101.81 66.784 1101.73 67.096 1101.73 67.432V72.04C1101.73 72.44 1101.81 72.8 1101.97 73.12C1102.14 73.424 1102.37 73.688 1102.66 73.912C1102.95 74.12 1103.29 74.28 1103.67 74.392C1104.07 74.504 1104.49 74.56 1104.92 74.56ZM1115.77 76C1115.1 76 1114.58 75.816 1114.23 75.448C1113.9 75.064 1113.73 74.584 1113.73 74.008V58.24H1115.65V74.32H1117.47V76H1115.77ZM1124.92 76.288C1124.07 76.288 1123.31 76.136 1122.62 75.832C1121.95 75.528 1121.36 75.096 1120.87 74.536C1120.39 73.96 1120.01 73.28 1119.74 72.496C1119.48 71.696 1119.35 70.8 1119.35 69.808C1119.35 68.832 1119.48 67.944 1119.74 67.144C1120.01 66.344 1120.39 65.664 1120.87 65.104C1121.36 64.528 1121.95 64.088 1122.62 63.784C1123.31 63.48 1124.07 63.328 1124.92 63.328C1125.75 63.328 1126.5 63.48 1127.15 63.784C1127.81 64.088 1128.37 64.512 1128.83 65.056C1129.3 65.584 1129.65 66.216 1129.89 66.952C1130.15 67.688 1130.27 68.496 1130.27 69.376V70.288H1121.37V70.864C1121.37 71.392 1121.45 71.888 1121.61 72.352C1121.79 72.8 1122.03 73.192 1122.33 73.528C1122.65 73.864 1123.03 74.128 1123.48 74.32C1123.95 74.512 1124.47 74.608 1125.04 74.608C1125.83 74.608 1126.51 74.424 1127.08 74.056C1127.67 73.688 1128.13 73.16 1128.45 72.472L1129.82 73.456C1129.42 74.304 1128.79 74.992 1127.95 75.52C1127.1 76.032 1126.09 76.288 1124.92 76.288ZM1124.92 64.936C1124.39 64.936 1123.91 65.032 1123.48 65.224C1123.05 65.4 1122.67 65.656 1122.35 65.992C1122.05 66.328 1121.81 66.728 1121.63 67.192C1121.46 67.64 1121.37 68.136 1121.37 68.68V68.848H1128.21V68.584C1128.21 67.48 1127.91 66.6 1127.3 65.944C1126.71 65.272 1125.91 64.936 1124.92 64.936Z" fill="#F4F4F4"/>
<path d="M1043.23 232V215.248H1049.9C1051.41 215.248 1052.56 215.68 1053.36 216.544C1054.18 217.392 1054.58 218.56 1054.58 220.048C1054.58 221.536 1054.18 222.712 1053.36 223.576C1052.56 224.424 1051.41 224.848 1049.9 224.848H1045.25V232H1043.23ZM1045.25 223.072H1049.9C1050.7 223.072 1051.32 222.864 1051.75 222.448C1052.2 222.032 1052.42 221.44 1052.42 220.672V219.424C1052.42 218.656 1052.2 218.064 1051.75 217.648C1051.32 217.232 1050.7 217.024 1049.9 217.024H1045.25V223.072ZM1059.63 232C1058.96 232 1058.45 231.816 1058.1 231.448C1057.76 231.064 1057.59 230.584 1057.59 230.008V214.24H1059.51V230.32H1061.34V232H1059.63ZM1073.13 232C1072.41 232 1071.89 231.808 1071.57 231.424C1071.27 231.04 1071.08 230.56 1071 229.984H1070.88C1070.61 230.752 1070.16 231.328 1069.53 231.712C1068.91 232.096 1068.17 232.288 1067.3 232.288C1065.99 232.288 1064.97 231.952 1064.23 231.28C1063.51 230.608 1063.15 229.696 1063.15 228.544C1063.15 227.376 1063.57 226.48 1064.42 225.856C1065.29 225.232 1066.62 224.92 1068.43 224.92H1070.88V223.696C1070.88 222.816 1070.64 222.144 1070.16 221.68C1069.68 221.216 1068.94 220.984 1067.95 220.984C1067.2 220.984 1066.57 221.152 1066.05 221.488C1065.56 221.824 1065.14 222.272 1064.81 222.832L1063.65 221.752C1063.99 221.08 1064.53 220.512 1065.26 220.048C1066 219.568 1066.93 219.328 1068.05 219.328C1069.55 219.328 1070.72 219.696 1071.55 220.432C1072.38 221.168 1072.8 222.192 1072.8 223.504V230.32H1074.21V232H1073.13ZM1067.61 230.656C1068.09 230.656 1068.53 230.6 1068.93 230.488C1069.33 230.376 1069.68 230.216 1069.97 230.008C1070.25 229.8 1070.48 229.56 1070.64 229.288C1070.8 229.016 1070.88 228.72 1070.88 228.4V226.36H1068.33C1067.23 226.36 1066.42 226.52 1065.91 226.84C1065.41 227.16 1065.17 227.624 1065.17 228.232V228.736C1065.17 229.344 1065.38 229.816 1065.81 230.152C1066.26 230.488 1066.86 230.656 1067.61 230.656ZM1084.59 229.984H1084.49C1084.36 230.272 1084.2 230.56 1084.01 230.848C1083.83 231.12 1083.61 231.368 1083.34 231.592C1083.07 231.8 1082.74 231.968 1082.35 232.096C1081.97 232.224 1081.52 232.288 1081.01 232.288C1079.73 232.288 1078.71 231.88 1077.96 231.064C1077.21 230.232 1076.83 229.064 1076.83 227.56V219.616H1078.75V227.224C1078.75 229.448 1079.7 230.56 1081.59 230.56C1081.97 230.56 1082.34 230.512 1082.69 230.416C1083.06 230.32 1083.38 230.176 1083.65 229.984C1083.94 229.792 1084.16 229.552 1084.32 229.264C1084.5 228.96 1084.59 228.6 1084.59 228.184V219.616H1086.51V232H1084.59V229.984ZM1094.31 232.288C1093.16 232.288 1092.19 232.072 1091.41 231.64C1090.64 231.192 1089.98 230.6 1089.42 229.864L1090.79 228.76C1091.27 229.368 1091.8 229.84 1092.39 230.176C1092.99 230.496 1093.67 230.656 1094.46 230.656C1095.27 230.656 1095.91 230.48 1096.35 230.128C1096.82 229.776 1097.05 229.28 1097.05 228.64C1097.05 228.16 1096.89 227.752 1096.57 227.416C1096.27 227.064 1095.71 226.824 1094.89 226.696L1093.91 226.552C1093.33 226.472 1092.8 226.352 1092.32 226.192C1091.84 226.016 1091.42 225.792 1091.05 225.52C1090.7 225.232 1090.42 224.88 1090.21 224.464C1090.02 224.048 1089.92 223.552 1089.92 222.976C1089.92 222.368 1090.03 221.84 1090.26 221.392C1090.48 220.928 1090.79 220.544 1091.17 220.24C1091.57 219.936 1092.04 219.712 1092.59 219.568C1093.13 219.408 1093.71 219.328 1094.34 219.328C1095.35 219.328 1096.19 219.504 1096.86 219.856C1097.55 220.208 1098.15 220.696 1098.66 221.32L1097.39 222.472C1097.11 222.088 1096.71 221.744 1096.19 221.44C1095.66 221.12 1094.99 220.96 1094.19 220.96C1093.39 220.96 1092.79 221.136 1092.37 221.488C1091.97 221.824 1091.77 222.288 1091.77 222.88C1091.77 223.488 1091.97 223.928 1092.37 224.2C1092.79 224.472 1093.38 224.672 1094.15 224.8L1095.11 224.944C1096.48 225.152 1097.46 225.552 1098.03 226.144C1098.61 226.72 1098.9 227.48 1098.9 228.424C1098.9 229.624 1098.49 230.568 1097.67 231.256C1096.86 231.944 1095.74 232.288 1094.31 232.288ZM1111.29 232C1110.57 232 1110.05 231.808 1109.73 231.424C1109.43 231.04 1109.23 230.56 1109.15 229.984H1109.03C1108.76 230.752 1108.31 231.328 1107.69 231.712C1107.07 232.096 1106.32 232.288 1105.46 232.288C1104.15 232.288 1103.12 231.952 1102.39 231.28C1101.67 230.608 1101.31 229.696 1101.31 228.544C1101.31 227.376 1101.73 226.48 1102.58 225.856C1103.44 225.232 1104.78 224.92 1106.59 224.92H1109.03V223.696C1109.03 222.816 1108.79 222.144 1108.31 221.68C1107.83 221.216 1107.1 220.984 1106.11 220.984C1105.35 220.984 1104.72 221.152 1104.21 221.488C1103.71 221.824 1103.3 222.272 1102.96 222.832L1101.81 221.752C1102.15 221.08 1102.68 220.512 1103.42 220.048C1104.15 219.568 1105.08 219.328 1106.2 219.328C1107.71 219.328 1108.87 219.696 1109.71 220.432C1110.54 221.168 1110.95 222.192 1110.95 223.504V230.32H1112.37V232H1111.29ZM1105.77 230.656C1106.25 230.656 1106.69 230.6 1107.09 230.488C1107.49 230.376 1107.83 230.216 1108.12 230.008C1108.41 229.8 1108.63 229.56 1108.79 229.288C1108.95 229.016 1109.03 228.72 1109.03 228.4V226.36H1106.49C1105.39 226.36 1104.58 226.52 1104.07 226.84C1103.57 227.16 1103.32 227.624 1103.32 228.232V228.736C1103.32 229.344 1103.54 229.816 1103.97 230.152C1104.42 230.488 1105.02 230.656 1105.77 230.656ZM1115.11 214.24H1117.03V221.632H1117.13C1117.45 220.848 1117.91 220.272 1118.52 219.904C1119.14 219.52 1119.89 219.328 1120.75 219.328C1121.52 219.328 1122.21 219.48 1122.84 219.784C1123.46 220.088 1123.99 220.52 1124.42 221.08C1124.87 221.64 1125.21 222.32 1125.43 223.12C1125.67 223.92 1125.79 224.816 1125.79 225.808C1125.79 226.8 1125.67 227.696 1125.43 228.496C1125.21 229.296 1124.87 229.976 1124.42 230.536C1123.99 231.096 1123.46 231.528 1122.84 231.832C1122.21 232.136 1121.52 232.288 1120.75 232.288C1119.07 232.288 1117.86 231.52 1117.13 229.984H1117.03V232H1115.11V214.24ZM1120.22 230.56C1121.31 230.56 1122.17 230.224 1122.79 229.552C1123.41 228.864 1123.73 227.968 1123.73 226.864V224.752C1123.73 223.648 1123.41 222.76 1122.79 222.088C1122.17 221.4 1121.31 221.056 1120.22 221.056C1119.79 221.056 1119.37 221.12 1118.97 221.248C1118.59 221.36 1118.25 221.52 1117.97 221.728C1117.68 221.936 1117.45 222.192 1117.27 222.496C1117.11 222.784 1117.03 223.096 1117.03 223.432V228.04C1117.03 228.44 1117.11 228.8 1117.27 229.12C1117.45 229.424 1117.68 229.688 1117.97 229.912C1118.25 230.12 1118.59 230.28 1118.97 230.392C1119.37 230.504 1119.79 230.56 1120.22 230.56ZM1131.07 232C1130.4 232 1129.89 231.816 1129.54 231.448C1129.2 231.064 1129.03 230.584 1129.03 230.008V214.24H1130.95V230.32H1132.78V232H1131.07ZM1140.23 232.288C1139.38 232.288 1138.61 232.136 1137.92 231.832C1137.25 231.528 1136.67 231.096 1136.17 230.536C1135.69 229.96 1135.32 229.28 1135.04 228.496C1134.79 227.696 1134.66 226.8 1134.66 225.808C1134.66 224.832 1134.79 223.944 1135.04 223.144C1135.32 222.344 1135.69 221.664 1136.17 221.104C1136.67 220.528 1137.25 220.088 1137.92 219.784C1138.61 219.48 1139.38 219.328 1140.23 219.328C1141.06 219.328 1141.8 219.48 1142.46 219.784C1143.12 220.088 1143.68 220.512 1144.14 221.056C1144.6 221.584 1144.96 222.216 1145.2 222.952C1145.45 223.688 1145.58 224.496 1145.58 225.376V226.288L1136.68 226.288V226.864C1136.68 227.392 1136.76 227.888 1136.92 228.352C1137.09 228.8 1137.33 229.192 1137.64 229.528C1137.96 229.864 1138.34 230.128 1138.79 230.32C1139.25 230.512 1139.77 230.608 1140.35 230.608C1141.13 230.608 1141.81 230.424 1142.39 230.056C1142.98 229.688 1143.44 229.16 1143.76 228.472L1145.12 229.456C1144.72 230.304 1144.1 230.992 1143.25 231.52C1142.4 232.032 1141.4 232.288 1140.23 232.288ZM1140.23 220.936C1139.7 220.936 1139.22 221.032 1138.79 221.224C1138.36 221.4 1137.98 221.656 1137.66 221.992C1137.36 222.328 1137.12 222.728 1136.94 223.192C1136.76 223.64 1136.68 224.136 1136.68 224.68V224.848L1143.52 224.848V224.584C1143.52 223.48 1143.21 222.6 1142.6 221.944C1142.01 221.272 1141.22 220.936 1140.23 220.936Z" fill="#F4F4F4"/>
<path d="M1043.23 456V439.248H1049.9C1051.41 439.248 1052.56 439.68 1053.36 440.544C1054.18 441.392 1054.58 442.56 1054.58 444.048C1054.58 445.536 1054.18 446.712 1053.36 447.576C1052.56 448.424 1051.41 448.848 1049.9 448.848H1045.25V456H1043.23ZM1045.25 447.072H1049.9C1050.7 447.072 1051.32 446.864 1051.75 446.448C1052.2 446.032 1052.42 445.44 1052.42 444.672V443.424C1052.42 442.656 1052.2 442.064 1051.75 441.648C1051.32 441.232 1050.7 441.024 1049.9 441.024H1045.25V447.072ZM1057.36 456V443.616H1059.28V445.896H1059.4C1059.62 445.304 1060.02 444.776 1060.6 444.312C1061.18 443.848 1061.97 443.616 1062.98 443.616H1063.72V445.536H1062.59C1061.55 445.536 1060.74 445.736 1060.14 446.136C1059.57 446.52 1059.28 447.008 1059.28 447.6V456H1057.36ZM1070.74 456.288C1069.9 456.288 1069.14 456.136 1068.46 455.832C1067.77 455.528 1067.18 455.096 1066.68 454.536C1066.2 453.96 1065.82 453.28 1065.55 452.496C1065.28 451.696 1065.14 450.8 1065.14 449.808C1065.14 448.832 1065.28 447.944 1065.55 447.144C1065.82 446.344 1066.2 445.664 1066.68 445.104C1067.18 444.528 1067.77 444.088 1068.46 443.784C1069.14 443.48 1069.9 443.328 1070.74 443.328C1071.57 443.328 1072.32 443.48 1072.99 443.784C1073.68 444.088 1074.27 444.528 1074.77 445.104C1075.26 445.664 1075.65 446.344 1075.92 447.144C1076.19 447.944 1076.33 448.832 1076.33 449.808C1076.33 450.8 1076.19 451.696 1075.92 452.496C1075.65 453.28 1075.26 453.96 1074.77 454.536C1074.27 455.096 1073.68 455.528 1072.99 455.832C1072.32 456.136 1071.57 456.288 1070.74 456.288ZM1070.74 454.584C1071.78 454.584 1072.62 454.264 1073.28 453.624C1073.94 452.984 1074.26 452.008 1074.26 450.696V448.92C1074.26 447.608 1073.94 446.632 1073.28 445.992C1072.62 445.352 1071.78 445.032 1070.74 445.032C1069.7 445.032 1068.85 445.352 1068.19 445.992C1067.54 446.632 1067.21 447.608 1067.21 448.92V450.696C1067.21 452.008 1067.54 452.984 1068.19 453.624C1068.85 454.264 1069.7 454.584 1070.74 454.584ZM1079.49 438.24H1081.41V445.632H1081.5C1081.82 444.848 1082.29 444.272 1082.89 443.904C1083.52 443.52 1084.26 443.328 1085.13 443.328C1085.89 443.328 1086.59 443.48 1087.21 443.784C1087.84 444.088 1088.37 444.52 1088.8 445.08C1089.25 445.64 1089.58 446.32 1089.81 447.12C1090.05 447.92 1090.17 448.816 1090.17 449.808C1090.17 450.8 1090.05 451.696 1089.81 452.496C1089.58 453.296 1089.25 453.976 1088.8 454.536C1088.37 455.096 1087.84 455.528 1087.21 455.832C1086.59 456.136 1085.89 456.288 1085.13 456.288C1083.45 456.288 1082.24 455.52 1081.5 453.984H1081.41V456H1079.49V438.24ZM1084.6 454.56C1085.69 454.56 1086.54 454.224 1087.17 453.552C1087.79 452.864 1088.1 451.968 1088.1 450.864V448.752C1088.1 447.648 1087.79 446.76 1087.17 446.088C1086.54 445.4 1085.69 445.056 1084.6 445.056C1084.17 445.056 1083.75 445.12 1083.35 445.248C1082.97 445.36 1082.63 445.52 1082.34 445.728C1082.05 445.936 1081.82 446.192 1081.65 446.496C1081.49 446.784 1081.41 447.096 1081.41 447.432V452.04C1081.41 452.44 1081.49 452.8 1081.65 453.12C1081.82 453.424 1082.05 453.688 1082.34 453.912C1082.63 454.12 1082.97 454.28 1083.35 454.392C1083.75 454.504 1084.17 454.56 1084.6 454.56ZM1102.41 456C1101.69 456 1101.17 455.808 1100.85 455.424C1100.54 455.04 1100.35 454.56 1100.27 453.984H1100.15C1099.88 454.752 1099.43 455.328 1098.81 455.712C1098.18 456.096 1097.44 456.288 1096.58 456.288C1095.26 456.288 1094.24 455.952 1093.5 455.28C1092.78 454.608 1092.42 453.696 1092.42 452.544C1092.42 451.376 1092.85 450.48 1093.7 449.856C1094.56 449.232 1095.9 448.92 1097.7 448.92H1100.15V447.696C1100.15 446.816 1099.91 446.144 1099.43 445.68C1098.95 445.216 1098.22 444.984 1097.22 444.984C1096.47 444.984 1095.84 445.152 1095.33 445.488C1094.83 445.824 1094.42 446.272 1094.08 446.832L1092.93 445.752C1093.26 445.08 1093.8 444.512 1094.54 444.048C1095.27 443.568 1096.2 443.328 1097.32 443.328C1098.82 443.328 1099.99 443.696 1100.82 444.432C1101.66 445.168 1102.07 446.192 1102.07 447.504V454.32H1103.49V456H1102.41ZM1096.89 454.656C1097.37 454.656 1097.81 454.6 1098.21 454.488C1098.61 454.376 1098.95 454.216 1099.24 454.008C1099.53 453.8 1099.75 453.56 1099.91 453.288C1100.07 453.016 1100.15 452.72 1100.15 452.4V450.36H1097.61C1096.5 450.36 1095.7 450.52 1095.18 450.84C1094.69 451.16 1094.44 451.624 1094.44 452.232V452.736C1094.44 453.344 1094.66 453.816 1095.09 454.152C1095.54 454.488 1096.14 454.656 1096.89 454.656ZM1106.23 438.24H1108.15V445.632H1108.24C1108.56 444.848 1109.03 444.272 1109.64 443.904C1110.26 443.52 1111 443.328 1111.87 443.328C1112.64 443.328 1113.33 443.48 1113.96 443.784C1114.58 444.088 1115.11 444.52 1115.54 445.08C1115.99 445.64 1116.32 446.32 1116.55 447.12C1116.79 447.92 1116.91 448.816 1116.91 449.808C1116.91 450.8 1116.79 451.696 1116.55 452.496C1116.32 453.296 1115.99 453.976 1115.54 454.536C1115.11 455.096 1114.58 455.528 1113.96 455.832C1113.33 456.136 1112.64 456.288 1111.87 456.288C1110.19 456.288 1108.98 455.52 1108.24 453.984H1108.15V456H1106.23V438.24ZM1111.34 454.56C1112.43 454.56 1113.28 454.224 1113.91 453.552C1114.53 452.864 1114.84 451.968 1114.84 450.864V448.752C1114.84 447.648 1114.53 446.76 1113.91 446.088C1113.28 445.4 1112.43 445.056 1111.34 445.056C1110.91 445.056 1110.49 445.12 1110.09 445.248C1109.71 445.36 1109.37 445.52 1109.08 445.728C1108.8 445.936 1108.56 446.192 1108.39 446.496C1108.23 446.784 1108.15 447.096 1108.15 447.432V452.04C1108.15 452.44 1108.23 452.8 1108.39 453.12C1108.56 453.424 1108.8 453.688 1109.08 453.912C1109.37 454.12 1109.71 454.28 1110.09 454.392C1110.49 454.504 1110.91 454.56 1111.34 454.56ZM1122.19 456C1121.52 456 1121.01 455.816 1120.65 455.448C1120.32 455.064 1120.15 454.584 1120.15 454.008V438.24H1122.07V454.32H1123.89V456H1122.19ZM1131.34 456.288C1130.5 456.288 1129.73 456.136 1129.04 455.832C1128.37 455.528 1127.78 455.096 1127.29 454.536C1126.81 453.96 1126.43 453.28 1126.16 452.496C1125.9 451.696 1125.78 450.8 1125.78 449.808C1125.78 448.832 1125.9 447.944 1126.16 447.144C1126.43 446.344 1126.81 445.664 1127.29 445.104C1127.78 444.528 1128.37 444.088 1129.04 443.784C1129.73 443.48 1130.5 443.328 1131.34 443.328C1132.18 443.328 1132.92 443.48 1133.58 443.784C1134.23 444.088 1134.79 444.512 1135.26 445.056C1135.72 445.584 1136.07 446.216 1136.31 446.952C1136.57 447.688 1136.7 448.496 1136.7 449.376V450.288H1127.79V450.864C1127.79 451.392 1127.87 451.888 1128.03 452.352C1128.21 452.8 1128.45 453.192 1128.75 453.528C1129.07 453.864 1129.46 454.128 1129.9 454.32C1130.37 454.512 1130.89 454.608 1131.46 454.608C1132.25 454.608 1132.93 454.424 1133.5 454.056C1134.1 453.688 1134.55 453.16 1134.87 452.472L1136.24 453.456C1135.84 454.304 1135.22 454.992 1134.37 455.52C1133.52 456.032 1132.51 456.288 1131.34 456.288ZM1131.34 444.936C1130.82 444.936 1130.34 445.032 1129.9 445.224C1129.47 445.4 1129.1 445.656 1128.78 445.992C1128.47 446.328 1128.23 446.728 1128.06 447.192C1127.88 447.64 1127.79 448.136 1127.79 448.68V448.848H1134.63V448.584C1134.63 447.48 1134.33 446.6 1133.72 445.944C1133.13 445.272 1132.34 444.936 1131.34 444.936Z" fill="#F4F4F4"/>
<path d="M1028 371L144 448.5L1028 529V371Z" fill="#595959"/>
<path d="M1028 371.5L144.5 449L1028 213V371.5Z" fill="#424242"/>
<path d="M1028 687L144.5 449L1028 529.5V687Z" fill="#424242"/>
<path d="M1028 56.5L144.5 449L1028 213V56.5Z" fill="#050505"/>
<path d="M1028 687L144.5 449L1028 843.5V687Z" fill="#050505"/>
<g style="mix-blend-mode:hard-light">
<path d="M836.5 316.5L147.122 449.38L847 433L836.5 316.5Z" fill="#538CFA"/>
</g>
<path d="M850.232 325V308.248H856.904C858.408 308.248 859.56 308.68 860.36 309.544C861.176 310.392 861.584 311.56 861.584 313.048C861.584 314.536 861.176 315.712 860.36 316.576C859.56 317.424 858.408 317.848 856.904 317.848H852.248V325H850.232ZM852.248 316.072H856.904C857.704 316.072 858.32 315.864 858.752 315.448C859.2 315.032 859.424 314.44 859.424 313.672V312.424C859.424 311.656 859.2 311.064 858.752 310.648C858.32 310.232 857.704 310.024 856.904 310.024H852.248V316.072ZM864.36 325V312.616H866.28V314.896H866.4C866.624 314.304 867.024 313.776 867.6 313.312C868.176 312.848 868.968 312.616 869.976 312.616H870.72V314.536H869.592C868.552 314.536 867.736 314.736 867.144 315.136C866.568 315.52 866.28 316.008 866.28 316.6V325H864.36ZM877.712 325.288C876.864 325.288 876.096 325.136 875.408 324.832C874.736 324.528 874.152 324.096 873.656 323.536C873.176 322.96 872.8 322.28 872.528 321.496C872.272 320.696 872.144 319.8 872.144 318.808C872.144 317.832 872.272 316.944 872.528 316.144C872.8 315.344 873.176 314.664 873.656 314.104C874.152 313.528 874.736 313.088 875.408 312.784C876.096 312.48 876.864 312.328 877.712 312.328C878.544 312.328 879.288 312.48 879.944 312.784C880.6 313.088 881.16 313.512 881.624 314.056C882.088 314.584 882.44 315.216 882.68 315.952C882.936 316.688 883.064 317.496 883.064 318.376V319.288H874.16V319.864C874.16 320.392 874.24 320.888 874.4 321.352C874.576 321.8 874.816 322.192 875.12 322.528C875.44 322.864 875.824 323.128 876.272 323.32C876.736 323.512 877.256 323.608 877.832 323.608C878.616 323.608 879.296 323.424 879.872 323.056C880.464 322.688 880.92 322.16 881.24 321.472L882.608 322.456C882.208 323.304 881.584 323.992 880.736 324.52C879.888 325.032 878.88 325.288 877.712 325.288ZM877.712 313.936C877.184 313.936 876.704 314.032 876.272 314.224C875.84 314.4 875.464 314.656 875.144 314.992C874.84 315.328 874.6 315.728 874.424 316.192C874.248 316.64 874.16 317.136 874.16 317.68V317.848H881V317.584C881 316.48 880.696 315.6 880.088 314.944C879.496 314.272 878.704 313.936 877.712 313.936ZM886.9 314.296H884.884V312.616H886.9V310.12C886.9 309.256 887.124 308.56 887.572 308.032C888.02 307.504 888.7 307.24 889.612 307.24H891.484V308.92H888.82V312.616H891.484V314.296H888.82V325H886.9V314.296ZM898.571 325.288C897.723 325.288 896.955 325.136 896.267 324.832C895.595 324.528 895.011 324.096 894.515 323.536C894.035 322.96 893.659 322.28 893.387 321.496C893.131 320.696 893.003 319.8 893.003 318.808C893.003 317.832 893.131 316.944 893.387 316.144C893.659 315.344 894.035 314.664 894.515 314.104C895.011 313.528 895.595 313.088 896.267 312.784C896.955 312.48 897.723 312.328 898.571 312.328C899.403 312.328 900.147 312.48 900.803 312.784C901.459 313.088 902.019 313.512 902.483 314.056C902.947 314.584 903.299 315.216 903.539 315.952C903.795 316.688 903.923 317.496 903.923 318.376V319.288H895.019V319.864C895.019 320.392 895.099 320.888 895.259 321.352C895.435 321.8 895.675 322.192 895.979 322.528C896.299 322.864 896.683 323.128 897.131 323.32C897.595 323.512 898.115 323.608 898.691 323.608C899.475 323.608 900.155 323.424 900.731 323.056C901.323 322.688 901.779 322.16 902.099 321.472L903.467 322.456C903.067 323.304 902.443 323.992 901.595 324.52C900.747 325.032 899.739 325.288 898.571 325.288ZM898.571 313.936C898.043 313.936 897.563 314.032 897.131 314.224C896.699 314.4 896.323 314.656 896.003 314.992C895.699 315.328 895.459 315.728 895.283 316.192C895.107 316.64 895.019 317.136 895.019 317.68V317.848H901.859V317.584C901.859 316.48 901.555 315.6 900.947 314.944C900.355 314.272 899.563 313.936 898.571 313.936ZM907.087 325V312.616H909.007V314.896H909.127C909.351 314.304 909.751 313.776 910.327 313.312C910.903 312.848 911.695 312.616 912.703 312.616H913.447V314.536H912.319C911.279 314.536 910.463 314.736 909.871 315.136C909.295 315.52 909.007 316.008 909.007 316.6V325H907.087ZM924.806 325C924.086 325 923.566 324.808 923.246 324.424C922.942 324.04 922.75 323.56 922.67 322.984H922.55C922.278 323.752 921.83 324.328 921.206 324.712C920.582 325.096 919.838 325.288 918.974 325.288C917.662 325.288 916.638 324.952 915.902 324.28C915.182 323.608 914.822 322.696 914.822 321.544C914.822 320.376 915.246 319.48 916.094 318.856C916.958 318.232 918.294 317.92 920.102 317.92H922.55V316.696C922.55 315.816 922.31 315.144 921.83 314.68C921.35 314.216 920.614 313.984 919.622 313.984C918.87 313.984 918.238 314.152 917.726 314.488C917.23 314.824 916.814 315.272 916.478 315.832L915.326 314.752C915.662 314.08 916.198 313.512 916.934 313.048C917.67 312.568 918.598 312.328 919.718 312.328C921.222 312.328 922.39 312.696 923.222 313.432C924.054 314.168 924.47 315.192 924.47 316.504V323.32H925.886V325H924.806ZM919.286 323.656C919.766 323.656 920.206 323.6 920.606 323.488C921.006 323.376 921.35 323.216 921.638 323.008C921.926 322.8 922.15 322.56 922.31 322.288C922.47 322.016 922.55 321.72 922.55 321.4V319.36H920.006C918.902 319.36 918.094 319.52 917.582 319.84C917.086 320.16 916.838 320.624 916.838 321.232V321.736C916.838 322.344 917.054 322.816 917.486 323.152C917.934 323.488 918.534 323.656 919.286 323.656ZM928.626 307.24H930.546V314.632H930.642C930.962 313.848 931.426 313.272 932.034 312.904C932.658 312.52 933.402 312.328 934.266 312.328C935.034 312.328 935.73 312.48 936.354 312.784C936.978 313.088 937.506 313.52 937.938 314.08C938.386 314.64 938.722 315.32 938.946 316.12C939.186 316.92 939.306 317.816 939.306 318.808C939.306 319.8 939.186 320.696 938.946 321.496C938.722 322.296 938.386 322.976 937.938 323.536C937.506 324.096 936.978 324.528 936.354 324.832C935.73 325.136 935.034 325.288 934.266 325.288C932.586 325.288 931.378 324.52 930.642 322.984H930.546V325H928.626V307.24ZM933.738 323.56C934.826 323.56 935.682 323.224 936.306 322.552C936.93 321.864 937.242 320.968 937.242 319.864V317.752C937.242 316.648 936.93 315.76 936.306 315.088C935.682 314.4 934.826 314.056 933.738 314.056C933.306 314.056 932.89 314.12 932.49 314.248C932.106 314.36 931.77 314.52 931.482 314.728C931.194 314.936 930.962 315.192 930.786 315.496C930.626 315.784 930.546 316.096 930.546 316.432V321.04C930.546 321.44 930.626 321.8 930.786 322.12C930.962 322.424 931.194 322.688 931.482 322.912C931.77 323.12 932.106 323.28 932.49 323.392C932.89 323.504 933.306 323.56 933.738 323.56ZM944.588 325C943.916 325 943.404 324.816 943.052 324.448C942.716 324.064 942.548 323.584 942.548 323.008V307.24H944.468V323.32H946.292V325H944.588ZM953.743 325.288C952.895 325.288 952.127 325.136 951.439 324.832C950.767 324.528 950.183 324.096 949.687 323.536C949.207 322.96 948.831 322.28 948.559 321.496C948.303 320.696 948.175 319.8 948.175 318.808C948.175 317.832 948.303 316.944 948.559 316.144C948.831 315.344 949.207 314.664 949.687 314.104C950.183 313.528 950.767 313.088 951.439 312.784C952.127 312.48 952.895 312.328 953.743 312.328C954.575 312.328 955.319 312.48 955.975 312.784C956.631 313.088 957.191 313.512 957.655 314.056C958.119 314.584 958.471 315.216 958.711 315.952C958.967 316.688 959.095 317.496 959.095 318.376V319.288H950.191V319.864C950.191 320.392 950.271 320.888 950.431 321.352C950.607 321.8 950.847 322.192 951.151 322.528C951.471 322.864 951.855 323.128 952.303 323.32C952.767 323.512 953.287 323.608 953.863 323.608C954.647 323.608 955.327 323.424 955.903 323.056C956.495 322.688 956.951 322.16 957.271 321.472L958.639 322.456C958.239 323.304 957.615 323.992 956.767 324.52C955.919 325.032 954.911 325.288 953.743 325.288ZM953.743 313.936C953.215 313.936 952.735 314.032 952.303 314.224C951.871 314.4 951.495 314.656 951.175 314.992C950.871 315.328 950.631 315.728 950.455 316.192C950.279 316.64 950.191 317.136 950.191 317.68V317.848H957.031V317.584C957.031 316.48 956.727 315.6 956.119 314.944C955.527 314.272 954.735 313.936 953.743 313.936Z" fill="#F4F4F4"/>
</svg>
