<svg width="197" height="196" viewBox="0 0 197 196" fill="none" xmlns="http://www.w3.org/2000/svg">
<path d="M64.0281 132.472C64.0281 132.472 53.4303 98.6916 58.5085 83.2365C62.4826 74.8466 58.1423 70.3732 44.3781 74.8466C35.5467 77.7169 34.1483 88.3146 34.2219 92.9511C41.2135 117.385 64.0281 132.472 64.0281 132.472Z" fill="url(#paint0_linear_0_83)"/>
<path d="M145.278 65.7944C130.926 98.0292 125.186 147.853 124.303 166.252C117.238 145.94 85.886 118.121 98.0293 74.405C107.744 39.4324 118.71 30.2477 123.42 29.8062L145.278 65.7944Z" fill="url(#paint1_linear_0_83)"/>
<path d="M172.655 0L118.783 31.7933C178.175 97.8084 172.655 195.617 172.655 195.617C172.655 195.617 226.306 113.484 172.655 0Z" fill="url(#paint2_linear_0_83)"/>
<path d="M84.5613 50.7809L41.7287 75.9505C77.7611 90.964 87.9467 128.424 88.5355 145.278C88.5355 145.278 124.368 167.915 124.524 166.915C133.534 108.981 101.635 65.3528 84.5613 50.7809Z" fill="url(#paint3_linear_0_83)"/>
<path d="M64.0281 132.472L36.8713 116.796C23.6241 96.2629 -1.52588e-05 100.016 -1.52588e-05 100.016C-1.52588e-05 100.016 35.5466 61.8202 64.0281 132.472Z" fill="url(#paint4_linear_0_83)"/>
<defs>
<linearGradient id="paint0_linear_0_83" x1="49.1237" y1="73.0808" x2="49.1237" y2="132.472" gradientUnits="userSpaceOnUse">
<stop stop-color="#753A88"/>
<stop offset="1" stop-color="#691D5C"/>
</linearGradient>
<linearGradient id="paint1_linear_0_83" x1="120.27" y1="29.8062" x2="120.27" y2="166.252" gradientUnits="userSpaceOnUse">
<stop stop-color="#A62160"/>
<stop offset="1" stop-color="#5C1449"/>
</linearGradient>
<linearGradient id="paint2_linear_0_83" x1="157.421" y1="10.377" x2="176.629" y2="195.617" gradientUnits="userSpaceOnUse">
<stop stop-color="#FC305B"/>
<stop offset="0.505208" stop-color="#FF8D2E"/>
<stop offset="1" stop-color="#FFFF00"/>
</linearGradient>
<linearGradient id="paint3_linear_0_83" x1="83.9126" y1="50.7809" x2="83.9126" y2="166.947" gradientUnits="userSpaceOnUse">
<stop stop-color="#7F0684"/>
<stop offset="0.505208" stop-color="#F00A51"/>
<stop offset="0.96875" stop-color="#FF5031"/>
</linearGradient>
<linearGradient id="paint4_linear_0_83" x1="32.014" y1="89.7072" x2="32.014" y2="132.472" gradientUnits="userSpaceOnUse">
<stop stop-color="#671077"/>
<stop offset="1" stop-color="#DC2A60"/>
</linearGradient>
</defs>
</svg>
