<svg width="172" height="171" viewBox="0 0 172 171" fill="none" xmlns="http://www.w3.org/2000/svg">
<path d="M44.7766 57.5147C57.3218 85.693 62.3398 129.247 63.1118 145.331C69.2879 127.574 96.6942 103.256 86.0791 65.0417C77.587 34.4702 68.8773 26.9446 64.4988 26.6078L44.7766 57.5147Z" fill="url(#paint0_linear_17_2)"/>
<path d="M20.8442 0L67.8668 27.9551C15.9492 85.6627 20.8442 171 20.8442 171C20.8442 171 -26.0553 99.2031 20.8442 0Z" fill="url(#paint1_linear_17_2)"/>
<path d="M115.801 115.801C115.801 115.801 125.065 86.272 120.626 72.7618C117.152 65.4277 120.67 61.2619 132.702 65.1723C140.422 67.6814 141.921 77.2009 141.857 81.2539C135.745 102.613 115.801 115.801 115.801 115.801Z" fill="url(#paint2_linear_17_2)"/>
<path d="M115.801 115.801L139.541 102.098C151.121 84.149 171.772 87.43 171.772 87.43C171.772 87.43 140.699 54.0406 115.801 115.801Z" fill="url(#paint3_linear_17_2)"/>
<path d="M97.8521 44.3905L135.295 66.3928C103.797 79.5169 94.8927 112.263 94.378 126.995C94.378 126.995 63.0546 146.784 62.9187 145.91C55.0418 95.2663 82.9266 57.1287 97.8521 44.3905Z" fill="url(#paint4_linear_17_2)"/>
<defs>
<linearGradient id="paint0_linear_17_2" x1="55.5002" y1="36.5" x2="85.0002" y2="129.5" gradientUnits="userSpaceOnUse">
<stop stop-color="#CE2F7A"/>
<stop offset="1" stop-color="#330B29"/>
</linearGradient>
<linearGradient id="paint1_linear_17_2" x1="34.1614" y1="9.07111" x2="17.3702" y2="171" gradientUnits="userSpaceOnUse">
<stop stop-color="#FC305B"/>
<stop offset="0.44785" stop-color="#FF8D2E"/>
<stop offset="1" stop-color="#FFFF00"/>
</linearGradient>
<linearGradient id="paint2_linear_17_2" x1="133" y1="67.5" x2="118" y2="114" gradientUnits="userSpaceOnUse">
<stop stop-color="#753A88"/>
<stop offset="1" stop-color="#2D0C27"/>
</linearGradient>
<linearGradient id="paint3_linear_17_2" x1="168" y1="85" x2="116" y2="116" gradientUnits="userSpaceOnUse">
<stop stop-color="#671077"/>
<stop offset="1" stop-color="#DC2A60"/>
</linearGradient>
<linearGradient id="paint4_linear_17_2" x1="111" y1="54" x2="64" y2="146" gradientUnits="userSpaceOnUse">
<stop stop-color="#7F0684"/>
<stop offset="0.412476" stop-color="#F00A51"/>
<stop offset="0.96875" stop-color="#FF5031"/>
</linearGradient>
</defs>
</svg>
